# WaveFront *.obj file (generated by Autodesk ATF)

mtllib 1dccabd0-c902-4588-a422-0bde1d7c7f62.mtl

g ШЕСТИГРАННИК

v 17.400000 10.000000 0.762000
v 25.239250 19.671079 0.762000
v 25.239250 19.671079 1.062000
v 17.400000 10.000000 1.062000
v 25.515656 19.627000 0.762000
v 25.515656 19.627000 1.062000
v 42.896478 19.627000 0.762000
v 42.896478 19.627000 1.062000
v 25.299999 0.400000 0.762000
v 25.299999 0.400000 1.062000
v 42.918364 0.400000 0.762000
v 42.918364 0.400000 1.062000
v 50.699999 10.000000 0.762000
v 50.699999 10.000000 1.062000
v 43.150507 20.000000 0.000000
v 25.000000 20.000000 0.000000
v 25.000000 20.000000 1.062000
v 43.150507 20.000000 1.062000
v 51.256377 10.000000 0.000000
v 51.256377 10.000000 1.062000
v 43.150507 0.000000 0.000000
v 43.150507 0.000000 1.062000
v 25.000000 0.000000 0.000000
v 25.000000 0.000000 1.062000
v 16.894131 10.000000 0.000000
v 16.894131 10.000000 1.062000
vt 0.000000 0.076200 0.000000
vt 1.244924 0.076200 0.000000
vt 0.000000 0.106200 0.000000
vt 1.244924 0.106200 0.000000
vt 0.000000 0.076200 0.000000
vt 0.027990 0.076200 0.000000
vt 0.000000 0.106200 0.000000
vt 0.027990 0.106200 0.000000
vt 0.000000 0.076200 0.000000
vt 1.738082 0.076200 0.000000
vt 0.000000 0.106200 0.000000
vt 1.738082 0.106200 0.000000
vt 0.000000 0.076200 0.000000
vt 1.243262 0.076200 0.000000
vt 0.000000 0.106200 0.000000
vt 1.243262 0.106200 0.000000
vt 0.000000 0.076200 0.000000
vt 1.761836 0.076200 0.000000
vt 0.000000 0.106200 0.000000
vt 1.761836 0.106200 0.000000
vt 0.000000 0.076200 0.000000
vt 1.235774 0.076200 0.000000
vt 0.000000 0.106200 0.000000
vt 1.235774 0.106200 0.000000
vt 0.000000 0.076200 0.000000
vt 1.239250 0.076200 0.000000
vt 0.000000 0.106200 0.000000
vt 1.239250 0.106200 0.000000
vt -0.000000 0.000000 0.000000
vt 1.815051 0.000000 0.000000
vt -0.000000 0.106200 0.000000
vt 1.815051 0.106200 0.000000
vt 0.000000 0.000000 0.000000
vt 1.287265 0.000000 0.000000
vt 0.000000 0.106200 0.000000
vt 1.287265 0.106200 0.000000
vt 0.000000 0.000000 0.000000
vt 1.287265 0.000000 0.000000
vt 0.000000 0.106200 0.000000
vt 1.287265 0.106200 0.000000
vt 0.000000 0.000000 0.000000
vt 1.815051 0.000000 0.000000
vt 0.000000 0.106200 0.000000
vt 1.815051 0.106200 0.000000
vt 0.000000 0.000000 0.000000
vt 1.287265 0.000000 0.000000
vt 0.000000 0.106200 0.000000
vt 1.287265 0.106200 0.000000
vt 0.000000 0.000000 0.000000
vt 1.287265 0.000000 0.000000
vt 0.000000 0.106200 0.000000
vt 1.287265 0.106200 0.000000
vt 0.882122 0.962700 0.000000
vt 0.907525 1.000000 0.000000
vt -0.855960 0.962700 0.000000
vt -0.907525 1.000000 0.000000
vt -0.883600 0.967108 0.000000
vt -1.718112 0.000000 0.000000
vt -1.667525 -0.000000 0.000000
vt -0.877525 -0.960000 0.000000
vt -0.907525 -1.000000 0.000000
vt 0.907525 -1.000000 0.000000
vt 1.718112 0.000000 0.000000
vt 1.662475 -0.000000 0.000000
vt 0.884311 -0.960000 0.000000
vt 0.884648 0.959146 0.000000
vt -0.853434 0.959146 0.000000
vt 1.665000 -0.003554 0.000000
vt -1.665000 -0.003554 0.000000
vt -0.875000 -0.963554 0.000000
vt -0.881075 0.963554 0.000000
vt 0.886837 -0.963554 0.000000
vt 0.905000 0.996446 0.000000
vt -0.910051 0.996446 0.000000
vt 1.715587 -0.003554 0.000000
vt -1.720638 -0.003554 0.000000
vt 0.905000 -1.003554 0.000000
vt -0.910051 -1.003554 0.000000
vn 0.077684 -0.062970 0.000000
vn 0.077684 -0.062970 0.000000
vn 0.077684 -0.062970 0.000000
vn 0.077684 -0.062970 0.000000
vn -0.015748 -0.098752 0.000000
vn -0.015748 -0.098752 0.000000
vn -0.015748 -0.098752 0.000000
vn -0.015748 -0.098752 0.000000
vn 0.000000 -0.100000 0.000000
vn 0.000000 -0.100000 0.000000
vn 0.000000 -0.100000 0.000000
vn 0.000000 -0.100000 0.000000
vn 0.077216 0.063543 0.000000
vn 0.077216 0.063543 0.000000
vn 0.077216 0.063543 0.000000
vn 0.077216 0.063543 0.000000
vn 0.000000 0.100000 0.000000
vn 0.000000 0.100000 0.000000
vn 0.000000 0.100000 0.000000
vn 0.000000 0.100000 0.000000
vn -0.077684 0.062970 0.000000
vn -0.077684 0.062970 0.000000
vn -0.077684 0.062970 0.000000
vn -0.077684 0.062970 0.000000
vn -0.077684 -0.062970 0.000000
vn -0.077684 -0.062970 0.000000
vn -0.077684 -0.062970 0.000000
vn -0.077684 -0.062970 0.000000
vn 0.000000 0.100000 0.000000
vn 0.000000 0.100000 0.000000
vn 0.000000 0.100000 0.000000
vn 0.000000 0.100000 0.000000
vn 0.077684 0.062970 0.000000
vn 0.077684 0.062970 0.000000
vn 0.077684 0.062970 0.000000
vn 0.077684 0.062970 0.000000
vn 0.077684 -0.062970 0.000000
vn 0.077684 -0.062970 0.000000
vn 0.077684 -0.062970 0.000000
vn 0.077684 -0.062970 0.000000
vn 0.000000 -0.100000 0.000000
vn 0.000000 -0.100000 0.000000
vn 0.000000 -0.100000 0.000000
vn 0.000000 -0.100000 0.000000
vn -0.077684 -0.062970 0.000000
vn -0.077684 -0.062970 0.000000
vn -0.077684 -0.062970 0.000000
vn -0.077684 -0.062970 0.000000
vn -0.077684 0.062970 0.000000
vn -0.077684 0.062970 0.000000
vn -0.077684 0.062970 0.000000
vn -0.077684 0.062970 0.000000
vn 0.000000 0.000000 0.100000
vn 0.000000 0.000000 0.100000
vn 0.000000 0.000000 0.100000
vn 0.000000 0.000000 0.100000
vn 0.000000 0.000000 0.100000
vn 0.000000 0.000000 0.100000
vn 0.000000 0.000000 0.100000
vn 0.000000 0.000000 0.100000
vn 0.000000 0.000000 0.100000
vn 0.000000 0.000000 0.100000
vn 0.000000 0.000000 0.100000
vn 0.000000 0.000000 0.100000
vn 0.000000 0.000000 0.100000
vn 0.000000 0.000000 0.100000
vn 0.000000 0.000000 0.100000
vn 0.000000 0.000000 0.100000
vn 0.000000 0.000000 0.100000
vn 0.000000 0.000000 0.100000
vn 0.000000 0.000000 0.100000
vn 0.000000 0.000000 0.100000
vn -0.000000 0.000000 -0.100000
vn -0.000000 0.000000 -0.100000
vn -0.000000 0.000000 -0.100000
vn -0.000000 0.000000 -0.100000
vn -0.000000 0.000000 -0.100000
vn -0.000000 0.000000 -0.100000
usemtl Mahogany
f 1/1/1 2/2/2 4/3/3
f 4/3/3 2/2/2 3/4/4
f 2/5/5 5/6/6 3/7/7
f 3/7/7 5/6/6 6/8/8
f 5/9/9 7/10/10 6/11/11
f 6/11/11 7/10/10 8/12/12
f 9/13/13 1/14/14 10/15/15
f 10/15/15 1/14/14 4/16/16
f 11/17/17 9/18/18 12/19/19
f 12/19/19 9/18/18 10/20/20
f 13/21/21 11/22/22 14/23/23
f 14/23/23 11/22/22 12/24/24
f 7/25/25 13/26/26 8/27/27
f 8/27/27 13/26/26 14/28/28
f 15/29/29 16/30/30 18/31/31
f 18/31/31 16/30/30 17/32/32
f 19/33/33 15/34/34 20/35/35
f 20/35/35 15/34/34 18/36/36
f 21/37/37 19/38/38 22/39/39
f 22/39/39 19/38/38 20/40/40
f 23/41/41 21/42/42 24/43/43
f 24/43/43 21/42/42 22/44/44
f 25/45/45 23/46/46 26/47/47
f 26/47/47 23/46/46 24/48/48
f 16/49/49 25/50/50 17/51/51
f 17/51/51 25/50/50 26/52/52
f 8/53/53 18/54/54 6/55/55
f 6/55/55 18/54/54 17/56/56
f 6/55/55 17/56/56 3/57/57
f 3/57/57 17/56/56 26/58/58
f 3/57/57 26/58/58 4/59/59
f 4/59/59 26/58/58 10/60/60
f 10/60/60 26/58/58 24/61/61
f 10/60/60 24/61/61 22/62/62
f 18/54/54 8/53/53 20/63/63
f 20/63/63 8/53/53 14/64/64
f 20/63/63 14/64/64 12/65/65
f 20/63/63 12/65/65 22/62/62
f 22/62/62 12/65/65 10/60/60
usemtl ABS_(White)
f 7/66/66 5/67/67 13/68/68
f 13/68/68 5/67/67 1/69/69
f 13/68/68 1/69/69 9/70/70
f 5/67/67 2/71/71 1/69/69
f 9/70/70 11/72/72 13/68/68
usemtl Mahogany
f 16/73/73 15/74/74 25/75/75
f 25/75/75 15/74/74 19/76/76
f 25/75/75 19/76/76 23/77/77
f 23/77/77 19/76/76 21/78/78
# 26 vertices
# 78 texture params
# 78 normals
# 48 facets

# 1 groups
